<svg width="1920" height="1080" viewBox="0 0 1920 1080" fill="none" xmlns="http://www.w3.org/2000/svg">
<path d="M1920 1080H0V0H1920V1080ZM206.33 422.036C191.783 422.036 180 433.819 180 448.366V585.456C180 600.003 191.783 611.786 206.33 611.786H279.086L269.417 638.803H252.286C248.692 638.803 245.244 640.231 242.702 642.772C240.16 645.314 238.732 648.762 238.732 652.356C238.733 655.951 240.161 659.398 242.702 661.939C245.244 664.481 248.692 665.909 252.286 665.909H360.714C364.308 665.909 367.756 664.481 370.298 661.939C372.839 659.398 374.267 655.951 374.268 652.356C374.268 648.762 372.84 645.314 370.298 642.772C367.756 640.231 364.308 638.803 360.714 638.803H343.583L333.914 611.786H406.67C421.217 611.786 433 600.003 433 585.456V448.366C433 433.819 421.217 422.036 406.67 422.036H206.33ZM850.057 483.84C835.67 483.84 822.93 486.874 811.837 492.94C800.744 499.007 792.077 507.674 785.837 518.94C779.77 530.207 776.737 543.38 776.737 558.46C776.737 573.54 779.857 586.714 786.097 597.98C792.337 609.247 801.003 617.914 812.097 623.98C823.19 630.047 835.843 633.08 850.057 633.08C861.843 633.08 872.504 630.913 882.037 626.58C891.57 622.247 899.457 616.266 905.697 608.64C912.11 601.013 916.53 592.433 918.957 582.9H871.637C867.303 592.26 859.59 596.94 848.497 596.94C841.044 596.94 834.717 594.6 829.517 589.92C824.49 585.067 821.631 578.133 820.938 569.12H921.557C922.077 564.613 922.337 560.28 922.337 556.12C922.337 541.56 919.217 528.82 912.977 517.9C906.91 506.98 898.417 498.573 887.497 492.68C876.577 486.786 864.097 483.84 850.057 483.84ZM945.792 631H990.252V610.72C994.585 617.48 1000.56 622.94 1008.19 627.1C1015.82 631.086 1024.75 633.08 1034.97 633.08C1046.93 633.08 1057.77 630.047 1067.47 623.98C1077.18 617.74 1084.8 608.986 1090.35 597.72C1096.07 586.28 1098.93 573.107 1098.93 558.2C1098.93 543.294 1096.07 530.207 1090.35 518.94C1084.8 507.674 1077.18 499.007 1067.47 492.94C1057.77 486.874 1046.93 483.84 1034.97 483.84C1024.92 483.84 1015.99 485.92 1008.19 490.08C1000.39 494.24 994.412 499.7 990.252 506.46V438.6H945.792V631ZM1178.16 483.84C1165.85 483.84 1155.19 485.834 1146.18 489.82C1137.34 493.807 1130.58 499.267 1125.9 506.2C1121.39 512.96 1119.14 520.5 1119.14 528.82C1119.14 538.7 1121.65 546.587 1126.68 552.48C1131.7 558.2 1137.68 562.446 1144.62 565.22C1151.55 567.82 1160.22 570.333 1170.62 572.76C1180.32 575.186 1187.34 577.44 1191.68 579.52C1196.01 581.426 1198.18 584.46 1198.18 588.62C1198.18 592.087 1196.62 594.947 1193.5 597.2C1190.55 599.28 1186.3 600.32 1180.76 600.32C1174.69 600.32 1169.58 598.76 1165.42 595.64C1161.26 592.52 1158.92 588.447 1158.4 583.42H1114.46C1115.15 592.78 1118.36 601.274 1124.08 608.9C1129.8 616.353 1137.6 622.247 1147.48 626.58C1157.36 630.913 1168.62 633.08 1181.28 633.08C1193.06 633.08 1203.38 631.174 1212.22 627.36C1221.23 623.547 1228.08 618.346 1232.76 611.76C1237.61 605 1240.04 597.373 1240.04 588.88C1239.86 578.827 1237.18 570.853 1231.98 564.96C1226.95 558.893 1221.06 554.56 1214.3 551.96C1207.54 549.187 1198.78 546.413 1188.04 543.64C1178.68 541.56 1171.74 539.48 1167.24 537.4C1162.9 535.32 1160.74 532.2 1160.74 528.04C1160.74 524.574 1162.12 521.887 1164.9 519.98C1167.67 517.901 1171.66 516.86 1176.86 516.86C1182.92 516.86 1187.78 518.334 1191.42 521.28C1195.23 524.227 1197.48 528.214 1198.18 533.24H1239.26C1237.7 518.334 1231.63 506.374 1221.06 497.36C1210.66 488.347 1196.36 483.84 1178.16 483.84ZM1514.02 483.84C1499.63 483.84 1486.89 486.874 1475.8 492.94C1464.71 499.007 1456.04 507.674 1449.8 518.94C1443.74 530.207 1440.7 543.38 1440.7 558.46C1440.7 573.54 1443.82 586.714 1450.06 597.98C1456.3 609.247 1464.97 617.914 1476.06 623.98C1487.15 630.047 1499.81 633.08 1514.02 633.08C1525.81 633.08 1536.47 630.913 1546 626.58C1555.54 622.247 1563.42 616.266 1569.66 608.64C1576.08 601.013 1580.5 592.433 1582.92 582.9H1535.6C1531.27 592.26 1523.56 596.94 1512.46 596.94C1505.01 596.94 1498.68 594.6 1493.48 589.92C1488.45 585.067 1485.6 578.133 1484.9 569.12H1585.52C1586.04 564.613 1586.3 560.28 1586.3 556.12C1586.3 541.56 1583.18 528.82 1576.94 517.9C1570.87 506.98 1562.38 498.573 1551.46 492.68C1540.54 486.786 1528.06 483.84 1514.02 483.84ZM1665.66 483.84C1653.35 483.84 1642.69 485.834 1633.68 489.82C1624.84 493.807 1618.08 499.267 1613.4 506.2C1608.89 512.96 1606.64 520.5 1606.64 528.82C1606.64 538.7 1609.15 546.587 1614.18 552.48C1619.2 558.2 1625.18 562.446 1632.12 565.22C1639.05 567.82 1647.72 570.333 1658.12 572.76C1667.82 575.186 1674.84 577.44 1679.18 579.52C1683.51 581.426 1685.68 584.46 1685.68 588.62C1685.68 592.087 1684.12 594.947 1681 597.2C1678.05 599.28 1673.8 600.32 1668.26 600.32C1662.19 600.32 1657.08 598.76 1652.92 595.64C1648.76 592.52 1646.42 588.447 1645.9 583.42H1601.96C1602.65 592.78 1605.86 601.274 1611.58 608.9C1617.3 616.353 1625.1 622.247 1634.98 626.58C1644.86 630.913 1656.12 633.08 1668.78 633.08C1680.56 633.08 1690.88 631.174 1699.72 627.36C1708.73 623.547 1715.58 618.346 1720.26 611.76C1725.11 605 1727.54 597.373 1727.54 588.88C1727.36 578.827 1724.68 570.853 1719.48 564.96C1714.45 558.893 1708.56 554.56 1701.8 551.96C1695.04 549.187 1686.28 546.413 1675.54 543.64C1666.18 541.56 1659.24 539.48 1654.74 537.4C1650.4 535.32 1648.24 532.2 1648.24 528.04C1648.24 524.574 1649.62 521.887 1652.4 519.98C1655.17 517.901 1659.16 516.86 1664.36 516.86C1670.42 516.86 1675.28 518.334 1678.92 521.28C1682.73 524.227 1684.98 528.214 1685.68 533.24H1726.76C1725.2 518.334 1719.13 506.374 1708.56 497.36C1698.16 488.347 1683.86 483.84 1665.66 483.84ZM548.78 631H602.6L632.76 510.88L661.88 631H715.7L763.28 448.48H715.44L688.92 581.34L657.72 448.48H608.84L576.34 581.34L550.08 448.48H502.5L548.78 631ZM1267.24 631H1311.7V485.92H1267.24V631ZM1350.94 485.92H1333.26V522.84H1350.94V580.56C1350.94 598.413 1355.44 611.326 1364.46 619.3C1373.47 627.1 1386.04 631 1402.16 631H1424.78V593.3H1408.92C1404.06 593.3 1400.6 592.347 1398.52 590.44C1396.44 588.534 1395.4 585.413 1395.4 581.08V522.84H1424.52V485.92H1395.4V450.56H1350.94V485.92ZM1021.71 522.58C1030.73 522.58 1038.27 525.787 1044.33 532.2C1050.57 538.44 1053.69 547.107 1053.69 558.2C1053.69 569.293 1050.57 578.133 1044.33 584.72C1038.09 591.133 1030.55 594.34 1021.71 594.34C1012.87 594.34 1005.33 591.133 999.092 584.72C993.025 578.306 989.992 569.553 989.992 558.46C989.992 547.367 993.025 538.614 999.092 532.2C1005.33 525.787 1012.87 522.58 1021.71 522.58ZM319.103 462.73C320.88 462.607 322.647 462.835 324.337 463.401C327.746 464.536 330.565 466.978 332.175 470.19C333.784 473.403 334.053 477.123 332.921 480.533L305.813 561.854C305.251 563.544 304.361 565.106 303.195 566.452C302.029 567.798 300.609 568.901 299.017 569.698C297.424 570.495 295.689 570.971 293.913 571.098C292.137 571.225 290.353 571.001 288.663 570.438C286.974 569.876 285.411 568.986 284.065 567.82C282.72 566.654 281.616 565.234 280.819 563.642C280.022 562.049 279.547 560.314 279.42 558.538C279.293 556.762 279.517 554.978 280.079 553.288L307.187 471.967C307.75 470.276 308.642 468.713 309.81 467.367C310.978 466.021 312.4 464.92 313.994 464.124C315.589 463.328 317.325 462.854 319.103 462.73ZM354.899 485.119C356.701 484.977 358.513 485.197 360.229 485.766C361.944 486.334 363.529 487.24 364.889 488.43L391.996 511.02C393.508 512.281 394.727 513.858 395.568 515.639C396.409 517.42 396.852 519.363 396.866 521.332C396.88 523.301 396.465 525.251 395.648 527.043C394.832 528.835 393.635 530.428 392.141 531.711L360.516 558.818C359.176 560.045 357.602 560.991 355.89 561.598C354.177 562.205 352.36 562.461 350.546 562.352C348.732 562.242 346.959 561.769 345.332 560.961C343.705 560.153 342.257 559.026 341.074 557.646C339.891 556.267 338.997 554.664 338.446 552.933C337.895 551.201 337.699 549.377 337.867 547.567C338.035 545.758 338.565 544.001 339.426 542.401C340.287 540.801 341.461 539.39 342.878 538.253L362.322 521.573L347.54 509.248C346.125 508.125 344.948 506.73 344.079 505.146C343.211 503.561 342.668 501.818 342.482 500.021C342.297 498.223 342.474 496.405 343.001 494.677C343.528 492.948 344.396 491.342 345.553 489.954C346.71 488.566 348.132 487.423 349.737 486.593C351.342 485.762 353.098 485.261 354.899 485.119ZM257.146 481.26C258.859 480.653 260.677 480.397 262.49 480.506C264.304 480.615 266.077 481.088 267.704 481.896C269.331 482.705 270.779 483.832 271.962 485.211C273.145 486.59 274.039 488.193 274.59 489.925C275.141 491.656 275.337 493.481 275.169 495.29C275.001 497.099 274.471 498.856 273.61 500.456C272.749 502.056 271.575 503.467 270.158 504.604L250.714 521.284L265.496 533.608C268.159 535.938 269.805 539.217 270.083 542.744C270.361 546.271 269.249 549.768 266.984 552.486C264.719 555.204 261.481 556.929 257.961 557.292C254.441 557.655 250.919 556.626 248.147 554.427L221.04 531.838C219.528 530.576 218.309 529 217.468 527.219C216.627 525.438 216.184 523.495 216.17 521.525C216.156 519.556 216.572 517.607 217.388 515.814C218.204 514.022 219.401 512.428 220.896 511.146L252.521 484.039C253.861 482.812 255.434 481.867 257.146 481.26ZM849.537 519.46C857.337 519.46 863.837 521.713 869.037 526.22C874.237 530.726 876.837 536.793 876.837 544.42H821.197C822.411 536.447 825.53 530.293 830.557 525.96C835.757 521.627 842.084 519.46 849.537 519.46ZM1513.5 519.46C1521.3 519.46 1527.8 521.713 1533 526.22C1538.2 530.726 1540.8 536.793 1540.8 544.42H1485.16C1486.38 536.447 1489.49 530.293 1494.52 525.96C1499.72 521.627 1506.05 519.46 1513.5 519.46ZM1289.6 422.74C1281.8 422.74 1275.38 425.08 1270.36 429.76C1265.5 434.266 1263.08 439.987 1263.08 446.92C1263.08 453.68 1265.5 459.4 1270.36 464.08C1275.38 468.587 1281.8 470.84 1289.6 470.84C1297.22 470.84 1303.46 468.587 1308.32 464.08C1313.34 459.4 1315.86 453.68 1315.86 446.92C1315.86 439.987 1313.34 434.266 1308.32 429.76C1303.46 425.08 1297.22 422.74 1289.6 422.74Z" fill="black"/>
</svg>
