<?xml version="1.0" standalone="no"?>
<!DOCTYPE svg PUBLIC "-//W3C//DTD SVG 20010904//EN"
 "http://www.w3.org/TR/2001/REC-SVG-20010904/DTD/svg10.dtd">
<svg version="1.0" xmlns="http://www.w3.org/2000/svg"
 width="1920.000000pt" height="1080.000000pt" viewBox="0 0 1920.000000 1080.000000"
 preserveAspectRatio="xMidYMid meet">

<g transform="translate(0.000000,1080.000000) scale(0.100000,-0.100000)"
fill="#000000" stroke="none">
<path d="M0 5400 l0 -5400 9600 0 9600 0 0 5400 0 5400 -9600 0 -9600 0 0
-5400z m7949 1025 c67 -37 117 -95 136 -159 31 -105 9 -194 -69 -272 -61 -61
-123 -84 -221 -84 -125 0 -219 50 -271 142 -25 46 -29 63 -29 133 0 96 21 142
89 202 63 56 121 74 226 70 72 -3 93 -8 139 -32z m1634 -250 c298 -45 549
-209 699 -457 36 -58 88 -181 103 -241 l7 -27 -280 0 -280 0 -26 45 c-84 142
-238 225 -421 225 -147 0 -262 -47 -361 -146 -112 -112 -164 -256 -164 -457 0
-291 118 -490 345 -577 85 -33 272 -34 358 -2 105 39 208 127 256 220 l12 22
280 0 281 0 -7 -27 c-3 -15 -20 -62 -36 -104 -107 -277 -343 -484 -644 -566
-93 -25 -114 -27 -305 -28 -184 0 -214 2 -294 24 -375 99 -633 355 -734 730
-24 89 -26 112 -26 306 0 196 2 216 26 307 109 400 416 684 808 748 41 6 82
13 90 15 45 9 228 3 313 -10z m-6573 -860 l0 -855 335 0 335 0 0 -200 0 -200
-590 0 -590 0 0 1055 0 1055 255 0 255 0 0 -855z m1780 435 c365 -44 621 -277
694 -633 16 -75 22 -299 10 -331 -6 -14 -66 -16 -585 -16 l-579 0 6 -27 c38
-174 96 -244 233 -279 133 -33 275 15 327 111 l19 35 273 0 274 0 -6 -27 c-4
-16 -27 -71 -53 -123 -39 -80 -60 -108 -137 -185 -50 -49 -117 -105 -149 -124
-127 -75 -275 -111 -453 -111 -426 0 -731 239 -821 644 -21 99 -21 326 2 430
35 164 94 282 199 393 177 190 450 279 746 243z m6899 -15 c168 -35 306 -112
426 -236 68 -71 92 -104 134 -190 71 -144 83 -196 88 -376 4 -117 1 -170 -12
-235 -68 -340 -326 -585 -679 -647 -77 -14 -275 -14 -352 0 -329 58 -565 268
-656 584 -20 70 -23 102 -23 260 0 211 14 277 93 429 37 74 64 109 142 187 78
78 111 104 186 142 95 48 202 82 306 97 84 12 256 4 347 -15z m1961 -254 l0
-268 -132 -5 c-106 -4 -145 -10 -192 -28 -79 -30 -139 -87 -168 -158 -22 -56
-23 -66 -26 -509 l-3 -453 -255 0 -254 0 0 835 0 835 255 0 255 0 0 -136 0
-136 39 49 c109 138 294 240 439 242 l42 1 0 -269z m1415 254 c144 -31 281
-117 363 -230 l45 -63 27 36 c47 65 154 156 227 195 193 101 441 103 642 5
118 -57 214 -153 269 -269 75 -157 75 -155 79 -786 l4 -563 -255 0 -256 0 0
475 c0 486 -4 544 -40 615 -26 50 -87 105 -145 132 -71 32 -209 32 -280 0 -63
-29 -109 -73 -143 -137 l-27 -50 -3 -517 -3 -518 -254 0 -254 0 -3 498 c-4
565 -4 562 -83 650 -64 71 -126 96 -240 96 -72 0 -100 -4 -140 -22 -69 -31
-131 -95 -157 -162 -22 -54 -23 -65 -26 -557 l-3 -503 -255 0 -254 0 0 835 0
835 255 0 255 0 0 -101 0 -101 63 58 c117 110 255 163 427 163 52 0 126 -6
165 -14z m-8727 -230 c84 -121 156 -221 160 -223 4 -1 65 97 136 219 71 121
134 223 140 225 6 2 132 3 279 2 l267 -3 -275 -412 c-151 -227 -275 -417 -275
-422 0 -8 349 -517 527 -768 l44 -63 -289 0 -288 0 -159 231 c-138 199 -161
228 -171 214 -7 -10 -68 -113 -136 -231 l-123 -214 -279 0 -278 0 17 27 c195
297 528 819 528 827 0 6 -117 180 -260 386 -142 206 -267 387 -277 403 l-19
27 289 -2 289 -3 153 -220z m1712 -610 l0 -835 -255 0 -255 0 0 835 0 835 255
0 255 0 0 -835z"/>
<path d="M4572 5335 c-67 -19 -84 -28 -134 -73 -44 -39 -83 -108 -93 -165 l-7
-37 321 0 c365 0 334 -9 305 91 -41 141 -230 230 -392 184z"/>
<path d="M11335 5281 c-131 -62 -194 -171 -203 -351 -9 -216 54 -350 198 -419
46 -22 69 -26 140 -26 71 0 94 4 141 26 75 35 134 96 172 177 31 65 32 71 32
207 0 166 -17 222 -93 306 -68 76 -143 109 -247 109 -67 0 -90 -5 -140 -29z"/>
</g>
</svg>
