<svg width="1920" height="1080" viewBox="0 0 1920 1080" fill="none" xmlns="http://www.w3.org/2000/svg">
<path d="M1920 1080H0V0H1920V1080ZM364.894 457.92C343.867 457.92 325.247 462.353 309.034 471.22C292.821 480.086 280.154 492.753 271.034 509.22C262.168 525.686 257.733 544.94 257.733 566.98C257.733 589.02 262.294 608.274 271.414 624.74C280.534 641.207 293.201 653.874 309.414 662.74C325.627 671.607 344.12 676.04 364.894 676.04C382.12 676.04 397.7 672.873 411.634 666.54C425.567 660.207 437.094 651.467 446.214 640.32C455.587 629.174 462.047 616.633 465.594 602.7H396.434C390.1 616.38 378.827 623.22 362.613 623.22C351.72 623.22 342.474 619.8 334.874 612.96C327.527 605.867 323.347 595.733 322.334 582.56H469.394C470.154 575.973 470.534 569.639 470.534 563.56C470.534 542.28 465.973 523.66 456.854 507.7C447.987 491.74 435.574 479.453 419.614 470.84C403.654 462.227 385.414 457.92 364.894 457.92ZM933.763 457.92C912.989 457.92 894.496 462.353 878.282 471.22C862.322 480.086 849.783 492.753 840.663 509.22C831.796 525.686 827.362 544.94 827.362 566.98C827.362 589.02 831.796 608.274 840.663 624.74C849.783 641.207 862.322 653.874 878.282 662.74C894.496 671.607 912.989 676.04 933.763 676.04C960.109 676.04 982.276 668.946 1000.26 654.76C1018.25 640.573 1030.03 621.067 1035.6 596.24H966.442C960.616 612.453 949.343 620.559 932.623 620.56C920.716 620.56 911.216 616 904.123 606.88C897.03 597.507 893.482 584.207 893.482 566.98C893.482 549.754 897.03 536.58 904.123 527.46C911.216 518.087 920.716 513.4 932.623 513.4C949.343 513.401 960.616 521.507 966.442 537.72H1035.6C1030.03 512.387 1018.25 492.754 1000.26 478.82C982.529 464.887 960.363 457.92 933.763 457.92ZM1167.64 457.92C1146.87 457.92 1128.12 462.353 1111.4 471.22C1094.68 480.086 1081.51 492.88 1071.88 509.6C1062.25 526.066 1057.44 545.194 1057.44 566.98C1057.44 589.02 1062.13 608.274 1071.5 624.74C1081.13 641.207 1094.17 653.874 1110.64 662.74C1127.36 671.607 1146.11 676.04 1166.88 676.04C1187.65 676.04 1206.4 671.607 1223.12 662.74C1240.09 653.874 1253.39 641.207 1263.02 624.74C1272.9 608.02 1277.84 588.767 1277.84 566.98C1277.84 545.194 1273.03 526.066 1263.4 509.6C1253.77 492.88 1240.6 480.086 1223.88 471.22C1207.16 462.353 1188.41 457.92 1167.64 457.92ZM89.5596 406.24V673H239.66V622.84H154.54V406.24H89.5596ZM483.154 460.96L554.974 564.7L485.054 673H555.354L589.554 614.1L630.214 673H703.174L630.214 567.74L701.274 460.96H630.974L596.773 519.48L556.114 460.96H483.154ZM728.212 460.96V673H793.192V460.96H728.212ZM1443.79 458.68C1429.86 458.68 1417.19 462.1 1405.79 468.94C1394.39 475.527 1384.89 484.647 1377.29 496.3V460.96H1312.31V673H1377.29V574.58C1377.29 557.1 1381.35 544.94 1389.45 538.1C1397.56 531.006 1409.72 527.46 1425.93 527.46H1443.79V458.68ZM1745.41 458.68C1730.47 458.68 1716.66 462.354 1703.99 469.7C1691.33 477.047 1681.32 486.547 1673.97 498.2C1666.88 485.534 1657 475.78 1644.33 468.94C1631.92 462.1 1617.73 458.68 1601.77 458.68C1588.35 458.68 1576.31 461.34 1565.67 466.66C1555.03 471.727 1546.42 478.693 1539.83 487.56V460.96H1474.85V673H1539.83V557.86C1539.83 544.181 1543.38 533.667 1550.47 526.32C1557.82 518.72 1567.83 514.92 1580.49 514.92C1593.16 514.92 1603.04 518.72 1610.13 526.32C1617.48 533.667 1621.15 544.18 1621.15 557.86V673H1685.75V557.86C1685.75 544.181 1689.3 533.667 1696.39 526.32C1703.74 518.72 1713.75 514.92 1726.41 514.92C1739.08 514.92 1748.96 518.72 1756.05 526.32C1763.4 533.667 1767.07 544.18 1767.07 557.86V673H1831.67V549.12C1831.67 520.747 1823.82 498.58 1808.11 482.62C1792.66 466.66 1771.76 458.68 1745.41 458.68ZM1167.64 514.16C1180.05 514.16 1190.44 518.72 1198.8 527.84C1207.41 536.96 1211.72 550.007 1211.72 566.98C1211.72 583.954 1207.29 597 1198.42 606.12C1189.81 615.24 1179.29 619.8 1166.88 619.8C1154.47 619.8 1144.08 615.24 1135.72 606.12C1127.61 597 1123.56 583.954 1123.56 566.98C1123.56 549.754 1127.74 536.707 1136.1 527.84C1144.46 518.72 1154.97 514.16 1167.64 514.16ZM364.134 509.98C375.534 509.98 385.034 513.274 392.634 519.86C400.234 526.447 404.034 535.313 404.034 546.46H322.714C324.487 534.807 329.047 525.814 336.394 519.48C343.994 513.147 353.24 509.98 364.134 509.98ZM760.893 368.62C749.493 368.62 740.119 372.04 732.772 378.88C725.679 385.467 722.133 393.827 722.133 403.96C722.133 413.84 725.679 422.2 732.772 429.04C740.119 435.627 749.493 438.92 760.893 438.92C772.039 438.92 781.159 435.627 788.252 429.04C795.599 422.2 799.272 413.84 799.272 403.96C799.272 393.827 795.599 385.467 788.252 378.88C781.159 372.04 772.039 368.62 760.893 368.62Z" fill="black"/>
</svg>
